<?xml version="1.0" encoding="UTF-8"?>
<svg xmlns="http://www.w3.org/2000/svg" xmlns:xlink="http://www.w3.org/1999/xlink" width="60px" height="px" viewBox="0 0 59 48" version="1.1">
<g id="surface1">
<path style=" stroke:none;fill-rule:nonzero;fill:rgb(100%,100%,100%);fill-opacity:1;" d="M 47.722656 35.316406 C 45.382812 37.738281 42.113281 39.109375 38.570312 39.113281 C 35.027344 39.121094 31.753906 37.761719 29.414062 35.34375 C 28.273438 34.167969 27.433594 32.816406 26.914062 31.371094 C 26.40625 29.953125 26.210938 28.433594 26.339844 26.933594 C 26.464844 25.464844 26.890625 24.039062 27.59375 22.75 C 28.277344 21.492188 29.21875 20.355469 30.378906 19.390625 C 32.648438 17.511719 35.542969 16.492188 38.570312 16.488281 C 41.601562 16.484375 44.488281 17.496094 46.761719 19.367188 C 47.921875 20.328125 48.859375 21.460938 49.542969 22.71875 C 50.246094 24.007812 50.671875 25.429688 50.796875 26.894531 C 50.929688 28.402344 50.730469 29.914062 50.222656 31.335938 C 49.703125 32.777344 48.863281 34.132812 47.722656 35.316406 Z M 47.722656 35.316406 "/>
<path style=" stroke:none;fill-rule:nonzero;fill:rgb(0%,32.549021%,52.156866%);fill-opacity:1;" d="M 31.011719 27.085938 C 31.117188 25.125 32.066406 23.398438 33.488281 22.175781 C 34.886719 20.96875 36.773438 20.234375 38.824219 20.234375 C 40.878906 20.238281 42.757812 20.972656 44.15625 22.175781 C 45.582031 23.398438 46.53125 25.125 46.636719 27.085938 C 46.746094 29.101562 45.949219 30.972656 44.550781 32.359375 C 43.125 33.773438 41.097656 34.660156 38.824219 34.660156 C 36.550781 34.660156 34.519531 33.773438 33.09375 32.359375 C 31.699219 30.972656 30.902344 29.101562 31.011719 27.085938 Z M 31.011719 27.085938 "/>
<path style=" stroke:none;fill-rule:nonzero;fill:rgb(100%,43.921569%,12.941177%);fill-opacity:1;" d="M 18.566406 31.054688 C 18.582031 31.816406 18.824219 33.308594 19.183594 34.472656 C 19.941406 36.9375 21.230469 39.21875 23.023438 41.230469 C 24.863281 43.296875 27.125 44.953125 29.742188 46.128906 C 32.496094 47.367188 35.476562 48 38.570312 47.992188 C 41.660156 47.988281 44.640625 47.347656 47.390625 46.097656 C 50.003906 44.90625 52.269531 43.246094 54.105469 41.175781 C 55.898438 39.15625 57.183594 36.871094 57.941406 34.40625 C 58.320312 33.179688 58.566406 31.910156 58.664062 30.628906 C 58.757812 29.378906 58.71875 28.121094 58.546875 26.875 C 58.207031 24.4375 57.375 22.152344 56.097656 20.066406 C 54.925781 18.152344 53.421875 16.476562 51.628906 15.0625 L 51.632812 15.058594 L 33.554688 0.960938 C 33.542969 0.949219 33.527344 0.933594 33.511719 0.921875 C 32.320312 0 30.328125 0.00390625 29.023438 0.929688 C 27.703125 1.867188 27.554688 3.417969 28.726562 4.398438 L 28.722656 4.398438 L 36.261719 10.632812 L 13.273438 10.65625 L 13.246094 10.65625 C 11.347656 10.65625 9.519531 11.925781 9.15625 13.523438 C 8.789062 15.152344 10.078125 16.503906 12.054688 16.515625 L 12.050781 16.523438 L 23.703125 16.496094 L 2.914062 32.710938 C 2.886719 32.730469 2.859375 32.75 2.835938 32.769531 C 0.875 34.292969 0.242188 36.832031 1.472656 38.4375 C 2.726562 40.070312 5.390625 40.074219 7.375 38.445312 L 18.71875 29.015625 C 18.71875 29.015625 18.554688 30.289062 18.566406 31.054688 Z M 47.722656 35.316406 C 45.382812 37.738281 42.113281 39.109375 38.570312 39.113281 C 35.027344 39.121094 31.753906 37.761719 29.414062 35.34375 C 28.273438 34.167969 27.433594 32.816406 26.914062 31.371094 C 26.40625 29.953125 26.210938 28.433594 26.339844 26.933594 C 26.464844 25.464844 26.890625 24.039062 27.59375 22.75 C 28.277344 21.492188 29.21875 20.355469 30.378906 19.390625 C 32.648438 17.511719 35.542969 16.492188 38.570312 16.488281 C 41.601562 16.484375 44.488281 17.496094 46.761719 19.367188 C 47.921875 20.328125 48.859375 21.460938 49.542969 22.71875 C 50.246094 24.007812 50.671875 25.429688 50.796875 26.894531 C 50.929688 28.402344 50.730469 29.914062 50.222656 31.335938 C 49.703125 32.777344 48.863281 34.132812 47.722656 35.316406 Z M 47.722656 35.316406 "/>
</g>
</svg>
