<?xml version="1.0" encoding="UTF-8"?>
<svg xmlns="http://www.w3.org/2000/svg" xmlns:xlink="http://www.w3.org/1999/xlink" width="60px" height="px" viewBox="0 0 60 67" version="1.1">
<g id="surface1">
<path style=" stroke:none;fill-rule:nonzero;fill:rgb(36.078432%,55.29412%,73.725492%);fill-opacity:1;" d="M 59.898438 19.707031 C 59.898438 18.582031 59.65625 17.589844 59.167969 16.738281 C 58.6875 15.902344 57.964844 15.199219 57 14.644531 C 49.023438 10.078125 41.042969 5.53125 33.070312 0.960938 C 30.921875 -0.269531 28.835938 -0.226562 26.703125 1.023438 C 23.53125 2.882812 7.636719 11.917969 2.902344 14.640625 C 0.953125 15.761719 0.00390625 17.476562 0.00390625 19.707031 C 0 28.882812 0.00390625 38.0625 0 47.238281 C 0 48.335938 0.230469 49.3125 0.699219 50.148438 C 1.179688 51.011719 1.910156 51.734375 2.898438 52.304688 C 7.636719 55.023438 23.53125 64.0625 26.703125 65.917969 C 28.835938 67.167969 30.921875 67.214844 33.070312 65.980469 C 41.042969 61.414062 49.027344 56.863281 57.003906 52.300781 C 57.992188 51.734375 58.722656 51.011719 59.203125 50.148438 C 59.667969 49.308594 59.902344 48.335938 59.902344 47.234375 C 59.902344 47.234375 59.902344 28.886719 59.898438 19.707031 "/>
<path style=" stroke:none;fill-rule:nonzero;fill:rgb(10.196079%,27.450982%,45.490196%);fill-opacity:1;" d="M 30.042969 33.382812 L 0.699219 50.148438 C 1.179688 51.011719 1.910156 51.734375 2.898438 52.304688 C 7.636719 55.023438 23.53125 64.0625 26.703125 65.917969 C 28.835938 67.167969 30.921875 67.214844 33.070312 65.980469 C 41.042969 61.414062 49.027344 56.863281 57.003906 52.300781 C 57.992188 51.734375 58.722656 51.011719 59.203125 50.148438 L 30.042969 33.382812 "/>
<path style=" stroke:none;fill-rule:nonzero;fill:rgb(10.196079%,27.450982%,45.490196%);fill-opacity:1;" d="M 21.351562 38.347656 C 23.058594 41.308594 26.269531 43.304688 29.949219 43.304688 C 33.65625 43.304688 36.882812 41.28125 38.582031 38.292969 L 30.042969 33.382812 L 21.351562 38.347656 "/>
<path style=" stroke:none;fill-rule:nonzero;fill:rgb(10.588235%,34.901962%,55.686277%);fill-opacity:1;" d="M 59.898438 19.707031 C 59.898438 18.582031 59.65625 17.589844 59.167969 16.738281 L 30.042969 33.382812 L 59.203125 50.148438 C 59.667969 49.308594 59.902344 48.335938 59.902344 47.234375 C 59.902344 47.234375 59.902344 28.886719 59.898438 19.707031 "/>
<path style=" stroke:none;fill-rule:nonzero;fill:rgb(100%,100%,100%);fill-opacity:1;" d="M 58.296875 34.582031 L 56.015625 34.582031 L 56.015625 36.84375 L 53.738281 36.84375 L 53.738281 34.582031 L 51.460938 34.582031 L 51.460938 32.320312 L 53.738281 32.320312 L 53.738281 30.058594 L 56.015625 30.058594 L 56.015625 32.320312 L 58.296875 32.320312 L 58.296875 34.582031 M 49.980469 34.582031 L 47.703125 34.582031 L 47.703125 36.84375 L 45.425781 36.84375 L 45.425781 34.582031 L 43.144531 34.582031 L 43.144531 32.320312 L 45.425781 32.320312 L 45.425781 30.058594 L 47.703125 30.058594 L 47.703125 32.320312 L 49.980469 32.320312 L 49.980469 34.582031 "/>
<path style=" stroke:none;fill-rule:nonzero;fill:rgb(100%,100%,100%);fill-opacity:1;" d="M 38.582031 38.292969 C 36.882812 41.28125 33.65625 43.304688 29.949219 43.304688 C 26.269531 43.304688 23.058594 41.308594 21.351562 38.347656 C 20.492188 36.863281 20.042969 35.183594 20.046875 33.472656 C 20.046875 28.042969 24.480469 23.640625 29.949219 23.640625 C 33.609375 23.640625 36.800781 25.609375 38.519531 28.539062 L 47.175781 23.589844 C 43.734375 17.695312 37.308594 13.730469 29.949219 13.730469 C 18.964844 13.730469 10.058594 22.566406 10.058594 33.472656 C 10.058594 37.050781 11.015625 40.402344 12.691406 43.296875 C 16.125 49.222656 22.570312 53.214844 29.949219 53.214844 C 37.347656 53.214844 43.800781 49.207031 47.226562 43.261719 L 38.582031 38.292969 "/>
</g>
</svg>
