<?xml version="1.0" encoding="UTF-8"?>
<svg xmlns="http://www.w3.org/2000/svg" xmlns:xlink="http://www.w3.org/1999/xlink" width="60px" height="px" viewBox="0 0 60 67" version="1.1">
<g id="surface1">
<path style=" stroke:none;fill-rule:nonzero;fill:rgb(60.392159%,28.627452%,57.647061%);fill-opacity:1;" d="M 60 19.699219 C 60.027344 18.664062 59.769531 17.636719 59.261719 16.730469 C 58.742188 15.855469 57.992188 15.132812 57.09375 14.644531 C 49.109375 10.082031 41.117188 5.519531 33.117188 0.957031 C 30.953125 -0.269531 28.886719 -0.234375 26.742188 1.011719 C 23.5625 2.863281 7.628906 11.914062 2.898438 14.644531 C 0.9375 15.761719 0 17.484375 0 19.722656 L 0 47.277344 C -0.0195312 48.292969 0.222656 49.292969 0.703125 50.191406 C 1.222656 51.097656 1.984375 51.84375 2.902344 52.351562 C 7.652344 55.082031 23.566406 64.117188 26.746094 65.984375 C 28.890625 67.238281 30.980469 67.285156 33.125 66.039062 C 41.109375 61.460938 49.101562 56.898438 57.097656 52.355469 C 58.023438 51.855469 58.789062 51.105469 59.300781 50.191406 C 59.777344 49.296875 60.019531 48.292969 60 47.277344 Z M 60 19.699219 "/>
<path style=" stroke:none;fill-rule:nonzero;fill:rgb(41.568628%,8.235294%,46.666667%);fill-opacity:1;" d="M 30.074219 33.386719 L 0.667969 50.171875 C 1.1875 51.078125 1.949219 51.824219 2.867188 52.332031 C 7.617188 55.0625 23.53125 64.097656 26.710938 65.964844 C 28.855469 67.21875 30.941406 67.265625 33.085938 66.019531 C 41.070312 61.441406 49.0625 56.878906 57.0625 52.335938 C 57.988281 51.835938 58.75 51.085938 59.261719 50.171875 Z M 30.074219 33.386719 "/>
<path style=" stroke:none;fill-rule:nonzero;fill:rgb(41.568628%,8.235294%,46.666667%);fill-opacity:1;" d="M 21.367188 38.351562 C 23.136719 41.433594 26.441406 43.328125 30.015625 43.316406 C 33.589844 43.304688 36.882812 41.386719 38.632812 38.296875 L 30.074219 33.386719 Z M 21.367188 38.351562 "/>
<path style=" stroke:none;fill-rule:nonzero;fill:rgb(50.588238%,18.82353%,51.764709%);fill-opacity:1;" d="M 60 19.699219 C 60.027344 18.664062 59.769531 17.636719 59.261719 16.730469 L 30.074219 33.386719 L 59.296875 50.171875 C 59.777344 49.273438 60.019531 48.273438 60 47.257812 Z M 60 19.699219 "/>
<path style=" stroke:none;fill-rule:nonzero;fill:rgb(100%,100%,100%);fill-opacity:1;" d="M 38.632812 38.296875 C 36.429688 42.191406 31.859375 44.128906 27.5 43.019531 C 23.136719 41.910156 20.078125 38.027344 20.042969 33.5625 C 20.007812 29.097656 23.011719 25.171875 27.355469 23.996094 C 31.699219 22.820312 36.296875 24.6875 38.558594 28.550781 L 47.222656 23.601562 C 42.699219 15.867188 33.5 12.113281 24.792969 14.449219 C 16.089844 16.785156 10.054688 24.628906 10.089844 33.570312 C 10.121094 42.511719 16.214844 50.308594 24.9375 52.582031 C 33.660156 54.855469 42.832031 51.03125 47.296875 43.261719 Z M 49.59375 28.816406 L 47.605469 28.816406 L 47.605469 38.289062 L 49.59375 38.289062 Z M 53.972656 28.816406 L 51.988281 28.816406 L 51.988281 38.289062 L 53.972656 38.289062 Z M 53.972656 28.816406 "/>
<path style=" stroke:none;fill-rule:nonzero;fill:rgb(100%,100%,100%);fill-opacity:1;" d="M 55.582031 30.402344 L 46.023438 30.402344 L 46.023438 32.371094 L 55.582031 32.371094 Z M 55.582031 34.726562 L 46.023438 34.726562 L 46.023438 36.695312 L 55.582031 36.695312 Z M 55.582031 34.726562 "/>
</g>
</svg>
