<?xml version="1.0" encoding="UTF-8"?>
<svg xmlns="http://www.w3.org/2000/svg" xmlns:xlink="http://www.w3.org/1999/xlink" width="60px" height="px" viewBox="0 0 60 68" version="1.1">
<g id="surface1">
<path style=" stroke:none;fill-rule:nonzero;fill:rgb(10.588235%,45.09804%,72.941178%);fill-opacity:1;" d="M 5.023438 60.875 L 0 0.113281 L 60 0.234375 L 54.6875 60.875 L 30.226562 67.886719 Z M 5.023438 60.875 "/>
<path style=" stroke:none;fill-rule:nonzero;fill:rgb(10.980392%,53.333336%,78.039217%);fill-opacity:1;" d="M 30.226562 62.019531 L 30.226562 5.902344 L 54.933594 5.980469 L 50.527344 56.191406 Z M 30.226562 62.019531 "/>
<path style=" stroke:none;fill-rule:nonzero;fill:rgb(100%,100%,100%);fill-opacity:1;" d="M 48.800781 13.074219 L 10.789062 13.074219 L 11.820312 20.410156 L 29.855469 20.410156 L 12.105469 27.949219 L 13.136719 35.039062 L 39.285156 35.039062 L 38.339844 44.941406 L 29.484375 46.652344 L 21.457031 44.617188 L 20.835938 38.992188 L 13.464844 38.992188 L 14.453125 50.6875 L 30.269531 55.050781 L 45.421875 50.28125 L 47.359375 27.417969 L 31.339844 27.417969 L 48.796875 20.246094 Z M 48.800781 13.074219 "/>
</g>
</svg>
