<?xml version="1.0" encoding="UTF-8"?>
<svg xmlns="http://www.w3.org/2000/svg" xmlns:xlink="http://www.w3.org/1999/xlink" width="60px" height="px" viewBox="0 0 60 59" version="1.1">
<g id="surface1">
<path style=" stroke:none;fill-rule:evenodd;fill:rgb(92.941177%,92.941177%,93.333334%);fill-opacity:1;" d="M 30.023438 0 C 13.488281 0 0.121094 13.519531 0.121094 30.246094 C 0.121094 43.613281 8.6875 54.929688 20.566406 58.941406 C 22.046875 59.238281 22.597656 58.289062 22.597656 57.492188 C 22.597656 56.789062 22.546875 54.378906 22.546875 51.882812 C 14.226562 53.679688 12.496094 48.273438 12.496094 48.273438 C 11.15625 44.761719 9.179688 43.863281 9.179688 43.863281 C 6.460938 42.003906 9.378906 42.003906 9.378906 42.003906 C 12.398438 42.203125 13.988281 45.113281 13.988281 45.113281 C 16.65625 49.722656 20.964844 48.410156 22.695312 47.613281 C 22.945312 45.664062 23.734375 44.3125 24.574219 43.5625 C 17.9375 42.863281 10.957031 40.261719 10.957031 28.636719 C 10.957031 25.335938 12.148438 22.625 14.027344 20.527344 C 13.726562 19.777344 12.6875 16.667969 14.328125 12.519531 C 14.328125 12.519531 16.855469 11.71875 22.546875 15.628906 C 24.984375 14.96875 27.496094 14.628906 30.023438 14.628906 C 32.554688 14.628906 35.125 14.976562 37.503906 15.628906 C 43.203125 11.71875 45.722656 12.519531 45.722656 12.519531 C 47.351562 16.675781 46.3125 19.777344 46.023438 20.527344 C 47.953125 22.636719 49.089844 25.335938 49.089844 28.636719 C 49.089844 40.253906 42.113281 42.804688 35.425781 43.5625 C 36.515625 44.511719 37.453125 46.3125 37.453125 49.171875 C 37.453125 53.230469 37.402344 56.480469 37.402344 57.492188 C 37.402344 58.289062 37.953125 59.238281 39.433594 58.941406 C 51.3125 54.929688 59.878906 43.613281 59.878906 30.246094 C 59.929688 13.519531 46.511719 0 30.023438 0 Z M 30.023438 0 "/>
</g>
</svg>
