<?xml version="1.0" encoding="UTF-8"?>
<svg xmlns="http://www.w3.org/2000/svg" xmlns:xlink="http://www.w3.org/1999/xlink" width="60px" height="px" viewBox="0 0 60 60" version="1.1">
<g id="surface1">
<rect x="0" y="0" width="60" height="60" style="fill:rgb(94.117647%,85.882354%,30.980393%);fill-opacity:1;stroke:none;"/>
<path style=" stroke:none;fill-rule:nonzero;fill:rgb(19.607843%,20%,18.82353%);fill-opacity:1;" d="M 55.089844 45.691406 C 54.648438 42.953125 52.863281 40.652344 47.578125 38.507812 C 45.742188 37.664062 43.695312 37.0625 43.082031 35.667969 C 42.867188 34.859375 42.839844 34.402344 42.976562 33.914062 C 43.367188 32.320312 45.269531 31.824219 46.773438 32.28125 C 47.742188 32.605469 48.660156 33.355469 49.214844 34.546875 C 51.804688 32.867188 51.796875 32.878906 53.605469 31.726562 C 52.945312 30.703125 52.589844 30.226562 52.15625 29.789062 C 50.601562 28.050781 48.480469 27.152344 45.085938 27.222656 C 44.5 27.296875 43.90625 27.375 43.316406 27.449219 C 41.625 27.878906 40.007812 28.769531 39.0625 29.960938 C 36.222656 33.183594 37.03125 38.824219 40.488281 41.144531 C 43.894531 43.699219 48.894531 44.28125 49.535156 46.671875 C 50.15625 49.597656 47.382812 50.542969 44.628906 50.207031 C 42.597656 49.785156 41.46875 48.753906 40.25 46.875 C 38.003906 48.175781 38.003906 48.175781 35.691406 49.503906 C 36.238281 50.703125 36.816406 51.246094 37.734375 52.285156 C 42.078125 56.691406 52.957031 56.476562 54.90625 49.800781 C 54.988281 49.574219 55.511719 48.046875 55.089844 45.691406 Z M 32.617188 27.574219 L 27.003906 27.574219 C 27.003906 32.425781 26.984375 37.238281 26.984375 42.085938 C 26.984375 45.171875 27.144531 48 26.640625 48.867188 C 25.820312 50.570312 23.691406 50.359375 22.722656 50.03125 C 21.734375 49.546875 21.234375 48.855469 20.652344 47.878906 C 20.492188 47.601562 20.371094 47.382812 20.332031 47.367188 C 18.808594 48.296875 17.292969 49.230469 15.769531 50.160156 C 16.527344 51.71875 17.644531 53.070312 19.078125 53.949219 C 21.214844 55.230469 24.089844 55.625 27.097656 54.933594 C 29.054688 54.363281 30.742188 53.183594 31.625 51.386719 C 32.902344 49.03125 32.628906 46.179688 32.617188 43.027344 C 32.644531 37.882812 32.617188 32.738281 32.617188 27.574219 Z M 32.617188 27.574219 "/>
</g>
</svg>
