<?xml version="1.0" encoding="UTF-8"?>
<svg xmlns="http://www.w3.org/2000/svg" xmlns:xlink="http://www.w3.org/1999/xlink" width="60px" height="px" viewBox="0 0 60 60" version="1.1">
<g id="surface1">
<path style=" stroke:none;fill-rule:nonzero;fill:rgb(93.333334%,93.333334%,93.333334%);fill-opacity:1;" d="M 13.96875 19.289062 L 1.929688 19.289062 C 1.390625 19.289062 0.960938 19.71875 0.960938 20.261719 L 0.960938 58.960938 C 0.960938 59.5 1.390625 59.929688 1.929688 59.929688 L 13.96875 59.929688 C 14.511719 59.929688 14.941406 59.5 14.941406 58.960938 L 14.941406 20.261719 C 14.941406 19.71875 14.511719 19.289062 13.96875 19.289062 Z M 13.96875 19.289062 "/>
<path style=" stroke:none;fill-rule:nonzero;fill:rgb(93.333334%,93.333334%,93.333334%);fill-opacity:1;" d="M 7.949219 0.0585938 C 3.570312 0.0585938 0 3.621094 0 8 C 0 12.378906 3.570312 15.949219 7.949219 15.949219 C 12.328125 15.949219 15.890625 12.390625 15.890625 8 C 15.890625 3.609375 12.328125 0.0585938 7.949219 0.0585938 Z M 7.949219 0.0585938 "/>
<path style=" stroke:none;fill-rule:nonzero;fill:rgb(93.333334%,93.333334%,93.333334%);fill-opacity:1;" d="M 44.609375 18.328125 C 39.769531 18.328125 36.199219 20.410156 34.019531 22.78125 L 34.019531 20.261719 C 34.019531 19.71875 33.589844 19.289062 33.058594 19.289062 L 21.519531 19.289062 C 20.980469 19.289062 20.550781 19.71875 20.550781 20.261719 L 20.550781 58.960938 C 20.550781 59.5 20.980469 59.929688 21.519531 59.929688 L 33.539062 59.929688 C 34.078125 59.929688 34.511719 59.5 34.511719 58.960938 L 34.511719 39.820312 C 34.511719 33.371094 36.261719 30.859375 40.761719 30.859375 C 45.660156 30.859375 46.050781 34.890625 46.050781 40.160156 L 46.050781 58.96875 C 46.050781 59.511719 46.480469 59.941406 47.011719 59.941406 L 59.03125 59.941406 C 59.570312 59.941406 60 59.511719 60 58.96875 L 60 37.75 C 60 28.160156 58.171875 18.351562 44.609375 18.351562 Z M 44.609375 18.328125 "/>
</g>
</svg>
