<?xml version="1.0" encoding="UTF-8"?>
<svg xmlns="http://www.w3.org/2000/svg" xmlns:xlink="http://www.w3.org/1999/xlink" width="60px" height="px" viewBox="0 0 60 59" version="1.1">
<defs>
<linearGradient id="linear0" gradientUnits="userSpaceOnUse" x1="0.12959" y1="0.12039" x2="0.79639" y2="0.78201" gradientTransform="matrix(44.359375,0,0,43.914063,0.0351563,0.015625)">
<stop offset="0" style="stop-color:rgb(21.960784%,49.411765%,72.156863%);stop-opacity:1;"/>
<stop offset="1" style="stop-color:rgb(21.176471%,41.176471%,58.039216%);stop-opacity:1;"/>
</linearGradient>
<linearGradient id="linear1" gradientUnits="userSpaceOnUse" x1="0.19128" y1="0.20579" x2="0.90742" y2="0.88429" gradientTransform="matrix(44.359375,0,0,43.914063,15.523438,14.882812)">
<stop offset="0" style="stop-color:rgb(100%,87.843137%,32.156863%);stop-opacity:1;"/>
<stop offset="1" style="stop-color:rgb(100%,76.470588%,19.215686%);stop-opacity:1;"/>
</linearGradient>
</defs>
<g id="surface1">
<path style=" stroke:none;fill-rule:nonzero;fill:url(#linear0);" d="M 29.742188 0.015625 C 14.550781 0.015625 15.5 6.523438 15.5 6.523438 L 15.515625 13.261719 L 30.015625 13.261719 L 30.015625 15.285156 L 9.757812 15.285156 C 9.757812 15.285156 0.0351562 14.195312 0.0351562 29.332031 C 0.0351562 44.464844 8.519531 43.929688 8.519531 43.929688 L 13.585938 43.929688 L 13.585938 36.90625 C 13.585938 36.90625 13.3125 28.527344 21.933594 28.527344 L 36.316406 28.527344 C 36.316406 28.527344 44.394531 28.65625 44.394531 20.820312 L 44.394531 7.859375 C 44.394531 7.859375 45.621094 0.015625 29.742188 0.015625 Z M 21.75 4.546875 C 22.441406 4.546875 23.105469 4.820312 23.59375 5.300781 C 24.082031 5.785156 24.355469 6.441406 24.355469 7.125 C 24.355469 7.808594 24.082031 8.460938 23.59375 8.945312 C 23.105469 9.429688 22.441406 9.699219 21.75 9.699219 C 21.054688 9.699219 20.394531 9.429688 19.902344 8.945312 C 19.414062 8.460938 19.140625 7.808594 19.140625 7.125 C 19.140625 6.441406 19.414062 5.785156 19.902344 5.300781 C 20.394531 4.820312 21.054688 4.546875 21.75 4.546875 Z M 21.75 4.546875 "/>
<path style=" stroke:none;fill-rule:nonzero;fill:url(#linear1);" d="M 30.175781 58.796875 C 45.367188 58.796875 44.417969 52.292969 44.417969 52.292969 L 44.402344 45.554688 L 29.902344 45.554688 L 29.902344 43.53125 L 50.160156 43.53125 C 50.160156 43.53125 59.882812 44.617188 59.882812 29.484375 C 59.882812 14.347656 51.398438 14.882812 51.398438 14.882812 L 46.332031 14.882812 L 46.332031 21.90625 C 46.332031 21.90625 46.605469 30.285156 37.984375 30.285156 L 23.601562 30.285156 C 23.601562 30.285156 15.523438 30.15625 15.523438 37.996094 L 15.523438 50.953125 C 15.523438 50.953125 14.296875 58.796875 30.175781 58.796875 Z M 38.167969 54.265625 C 37.476562 54.265625 36.8125 53.996094 36.324219 53.511719 C 35.835938 53.03125 35.558594 52.375 35.5625 51.691406 C 35.558594 51.007812 35.835938 50.351562 36.324219 49.871094 C 36.8125 49.386719 37.476562 49.113281 38.167969 49.117188 C 38.859375 49.113281 39.523438 49.386719 40.015625 49.867188 C 40.503906 50.351562 40.777344 51.007812 40.777344 51.691406 C 40.777344 52.375 40.503906 53.027344 40.015625 53.511719 C 39.523438 53.996094 38.859375 54.265625 38.167969 54.265625 Z M 38.167969 54.265625 "/>
</g>
</svg>
