<svg xmlns="http://www.w3.org/2000/svg" 
            xmlns:xlink="http://www.w3.org/1999/xlink"
            width="60" 
            height="60" 
            viewBox="0 0 60 60"
            version="1.1">
            <metadata>
                <rdf:RDF xmlns:rdf="http://www.w3.org/1999/02/22-rdf-syntax-ns#"
                         xmlns:rdfs="http://www.w3.org/2000/01/rdf-schema#"
                         xmlns:dc="http://purl.org/dc/elements/1.1/">
                    <rdf:Description>
                        <dc:title>Pixel Art SVG</dc:title>
                        <dc:creator>ImageToSVGPixelArt</dc:creator>
                        <dc:description>Generated pixel art in SVG format</dc:description>
                    </rdf:Description>
                </rdf:RDF>
            </metadata><g fill="rgb(237, 237, 237)"><rect x="20" y="0" width="2" height="2" /><rect x="38" y="0" width="2" height="2" /><rect x="4" y="12" width="2" height="2" /><rect x="56" y="16" width="2" height="2" /><rect x="34" y="44" width="2" height="2" /><rect x="56" y="44" width="2" height="2" /><rect x="4" y="48" width="2" height="2" /><rect x="22" y="48" width="2" height="2" /></g><g fill="rgb(239, 239, 239)"><rect x="22" y="0" width="16" height="2" /><rect x="18" y="2" width="24" height="2" /><rect x="14" y="4" width="30" height="2" /><rect x="10" y="6" width="38" height="2" /><rect x="8" y="8" width="44" height="2" /><rect x="8" y="10" width="44" height="2" /><rect x="6" y="12" width="8" height="2" /><rect x="18" y="12" width="24" height="2" /><rect x="46" y="12" width="8" height="2" /><rect x="4" y="14" width="10" height="2" /><rect x="20" y="14" width="4" height="2" /><rect x="28" y="14" width="12" height="2" /><rect x="46" y="14" width="8" height="2" /><rect x="4" y="16" width="8" height="2" /><rect x="46" y="16" width="10" height="2" /><rect x="2" y="18" width="10" height="2" /><rect x="46" y="18" width="12" height="2" /><rect x="2" y="20" width="12" height="2" /><rect x="46" y="20" width="12" height="2" /><rect x="0" y="22" width="12" height="2" /><rect x="48" y="22" width="10" height="2" /><rect x="2" y="24" width="10" height="2" /><rect x="48" y="24" width="12" height="2" /><rect x="0" y="26" width="10" height="2" /><rect x="50" y="26" width="8" height="2" /><rect x="0" y="28" width="12" height="2" /><rect x="50" y="28" width="10" height="2" /><rect x="0" y="30" width="12" height="2" /><rect x="50" y="30" width="10" height="2" /><rect x="0" y="32" width="10" height="2" /><rect x="50" y="32" width="10" height="2" /><rect x="0" y="34" width="10" height="2" /><rect x="48" y="34" width="10" height="2" /><rect x="0" y="36" width="12" height="2" /><rect x="48" y="36" width="10" height="2" /><rect x="2" y="38" width="12" height="2" /><rect x="46" y="38" width="12" height="2" /><rect x="2" y="40" width="14" height="2" /><rect x="46" y="40" width="12" height="2" /><rect x="2" y="42" width="6" height="2" /><rect x="12" y="42" width="8" height="2" /><rect x="38" y="42" width="2" height="2" /><rect x="42" y="42" width="14" height="2" /><rect x="4" y="44" width="6" height="2" /><rect x="14" y="44" width="8" height="2" /><rect x="36" y="44" width="20" height="2" /><rect x="4" y="46" width="8" height="2" /><rect x="16" y="46" width="8" height="2" /><rect x="38" y="46" width="18" height="2" /><rect x="6" y="48" width="8" height="2" /><rect x="18" y="48" width="2" height="2" /><rect x="38" y="48" width="14" height="2" /><rect x="8" y="50" width="8" height="2" /><rect x="38" y="50" width="12" height="2" /><rect x="10" y="52" width="8" height="2" /><rect x="20" y="52" width="2" height="2" /><rect x="38" y="52" width="12" height="2" /><rect x="12" y="54" width="10" height="2" /><rect x="38" y="54" width="10" height="2" /><rect x="14" y="56" width="8" height="2" /><rect x="38" y="56" width="6" height="2" /><rect x="46" y="56" width="2" height="2" /><rect x="18" y="58" width="4" height="2" /><rect x="38" y="58" width="2" height="2" /></g><g fill="rgb(255, 255, 255)"><rect x="14" y="2" width="2" height="2" /><rect x="44" y="2" width="2" height="2" /><rect x="46" y="34" width="2" height="2" /><rect x="14" y="38" width="2" height="2" /><rect x="14" y="58" width="2" height="2" /><rect x="44" y="58" width="2" height="2" /></g><g fill="rgb(236, 236, 238)"><rect x="16" y="2" width="2" height="2" /><rect x="42" y="2" width="2" height="2" /><rect x="48" y="6" width="2" height="2" /></g><g fill="rgb(238, 238, 238)"><rect x="12" y="4" width="2" height="2" /><rect x="6" y="10" width="2" height="2" /><rect x="52" y="10" width="2" height="2" /><rect x="14" y="12" width="2" height="2" /><rect x="44" y="12" width="2" height="2" /><rect x="54" y="12" width="2" height="4" /><rect x="12" y="16" width="2" height="2" /><rect x="58" y="20" width="2" height="2" /><rect x="46" y="22" width="2" height="2" /><rect x="58" y="22" width="2" height="2" /><rect x="48" y="26" width="2" height="2" /><rect x="58" y="26" width="2" height="2" /><rect x="58" y="36" width="2" height="4" /><rect x="42" y="40" width="4" height="2" /><rect x="40" y="42" width="2" height="2" /><rect x="12" y="44" width="2" height="2" /><rect x="22" y="44" width="2" height="2" /><rect x="14" y="46" width="2" height="2" /><rect x="8" y="52" width="2" height="2" /><rect x="36" y="52" width="2" height="2" /><rect x="50" y="52" width="2" height="2" /><rect x="36" y="54" width="2" height="2" /><rect x="48" y="54" width="2" height="2" /><rect x="12" y="56" width="2" height="2" /><rect x="22" y="58" width="2" height="2" /><rect x="36" y="58" width="2" height="2" /><rect x="42" y="58" width="2" height="2" /></g><g fill="rgb(240, 240, 240)"><rect x="44" y="4" width="4" height="2" /><rect x="16" y="12" width="2" height="2" /><rect x="42" y="12" width="2" height="2" /><rect x="24" y="14" width="2" height="2" /><rect x="12" y="18" width="2" height="2" /><rect x="0" y="20" width="2" height="2" /><rect x="10" y="32" width="2" height="2" /><rect x="48" y="32" width="2" height="2" /><rect x="10" y="34" width="2" height="2" /><rect x="58" y="34" width="2" height="2" /><rect x="8" y="42" width="2" height="2" /><rect x="56" y="42" width="2" height="2" /><rect x="16" y="48" width="2" height="2" /><rect x="36" y="50" width="2" height="2" /><rect x="50" y="50" width="2" height="2" /><rect x="18" y="52" width="2" height="2" /><rect x="22" y="52" width="2" height="6" /><rect x="16" y="58" width="2" height="2" /><rect x="40" y="58" width="2" height="2" /></g><g fill="rgb(235, 235, 239)"><rect x="26" y="14" width="2" height="2" /><rect x="12" y="22" width="2" height="2" /><rect x="0" y="24" width="2" height="2" /><rect x="46" y="36" width="2" height="2" /><rect x="2" y="44" width="2" height="2" /><rect x="52" y="48" width="2" height="2" /><rect x="6" y="50" width="2" height="2" /><rect x="44" y="56" width="2" height="2" /></g><g fill="rgb(236, 236, 239)"><rect x="2" y="16" width="2" height="2" /><rect x="36" y="48" width="2" height="2" /><rect x="10" y="54" width="2" height="2" /><rect x="36" y="56" width="2" height="2" /></g><g fill="rgb(235, 235, 240)"><rect x="10" y="26" width="2" height="2" /><rect x="20" y="42" width="2" height="2" /><rect x="52" y="50" width="2" height="2" /></g><g fill="rgb(234, 234, 238)"><rect x="48" y="28" width="2" height="2" /><rect x="10" y="42" width="2" height="2" /><rect x="36" y="46" width="2" height="2" /><rect x="20" y="48" width="2" height="2" /></g><g fill="rgb(235, 235, 238)"><rect x="48" y="30" width="2" height="2" /></g><g fill="rgb(236, 236, 236)"><rect x="12" y="36" width="2" height="2" /></g><g fill="rgb(234, 234, 239)"><rect x="0" y="38" width="2" height="2" /></g><g fill="rgb(234, 234, 234)"><rect x="44" y="38" width="2" height="2" /><rect x="0" y="40" width="2" height="2" /><rect x="24" y="44" width="2" height="2" /></g><g fill="rgb(233, 233, 233)"><rect x="16" y="40" width="2" height="2" /></g><g fill="rgb(241, 241, 241)"><rect x="58" y="40" width="2" height="2" /><rect x="10" y="44" width="2" height="2" /></g><g fill="rgb(232, 232, 243)"><rect x="54" y="48" width="2" height="2" /></g><text x="55" y="55" 
                    font-family="Arial" font-size="12" fill="rgba(0,0,0,0.5)" 
                    text-anchor="end">ImageToSVGPixelArt</text></svg>